<?xml version="1.0" encoding="utf-8"?>
<!-- Generator: Adobe Illustrator 17.1.0, SVG Export Plug-In . SVG Version: 6.00 Build 0)  -->
<!DOCTYPE svg PUBLIC "-//W3C//DTD SVG 1.1//EN" "http://www.w3.org/Graphics/SVG/1.1/DTD/svg11.dtd">
<svg version="1.1" id="LINE_LOGO" xmlns="http://www.w3.org/2000/svg" xmlns:xlink="http://www.w3.org/1999/xlink" x="0px" y="0px"
	 viewBox="0 0 568.0526123 279.5375061" enable-background="new 0 0 568.0526123 279.5375061" xml:space="preserve">
<path fill="#FFC2D7" d="M57.3913307,61.439045l14.2919121-26.4491768c1.440094-2.6650887-0.4898148-5.9015579-3.519104-5.9015579
	H39.5802727c-3.0292854,0-4.9591942,3.2364731-3.5190964,5.9015617l14.291954,26.4491768
	C51.8650017,64.236969,55.879467,64.2369614,57.3913307,61.439045z"/>
<path fill="#FFC2D7" d="M434.604187,234.4969788l-19.8980103,36.8240356
	c-2.0049744,3.7104797,0.6819458,8.2164612,4.8995056,8.2164612h39.796051c4.2175293,0,6.90448-4.5059814,4.8994751-8.2164917
	l-19.8980408-36.8240051C442.2982483,230.6015625,436.7090759,230.6015625,434.604187,234.4969788z"/>
<path fill="#FFC2D7" d="M455.4484253,51.2006187l14.2919006-26.4491768c1.440094-2.6650887-0.4898071-5.9015579-3.519104-5.9015579
	h-28.5838623c-3.0292969,0-4.959198,3.2364731-3.519104,5.9015636l14.2919617,26.4491749
	C449.9220886,53.9985428,453.936554,53.998539,455.4484253,51.2006187z"/>
<path fill="#FFD247" d="M82.1021118,136.1468048l-9.6054001,17.7761536
	c-0.9678726,1.7911682,0.3291931,3.9663544,2.3651352,3.9663544h19.2108459c2.0359421,0,3.3330078-2.1751862,2.3651352-3.9663696
	l-9.6054306-17.7761383C85.8162918,134.2663574,83.1182175,134.2663727,82.1021118,136.1468048z"/>
<path fill="#FFD247" d="M542.7392578,125.7623901l-16.5825195,30.6883392
	c-1.6708984,3.0922394,0.5682983,6.8474426,4.0831299,6.8474426h33.1651611c3.5147705,0,5.7540283-3.7552032,4.0831299-6.8474426
	l-16.5826416-30.6883392C549.1513672,122.516037,544.4934692,122.516037,542.7392578,125.7623901z"/>
<path fill="#FFD247" d="M235.6480713,73.5691147l-5.7966919,10.7275848c-0.5840912,1.0809402,0.1986542,2.393631,1.4273224,2.393631
	h11.593399c1.228653,0,2.0113983-1.3126907,1.4273071-2.393631l-5.7967072-10.7275848
	C237.8894958,72.4343033,236.261261,72.4343033,235.6480713,73.5691147z"/>
<path fill="#FFD247" d="M476.2208252,29.9394207l-5.7966919,10.7275867
	c-0.5840759,1.0809402,0.1986694,2.3936272,1.4273376,2.3936272h11.5933838c1.2286682,0,2.0114136-1.3126907,1.4273376-2.393631
	L479.07547,29.9394188C478.4622803,28.8046055,476.8340454,28.8046074,476.2208252,29.9394207z"/>
<path fill="#FC5E65" d="M128.4972076,104.4910278l6.2346344-11.5380554
	c0.6282196-1.1626053-0.2136841-2.5744629-1.5351562-2.5744629h-12.4692841c-1.3214874,0-2.1633759,1.4118652-1.5351562,2.5744705
	l6.2346497,11.5380554C126.0864258,105.7115784,127.837677,105.7115784,128.4972076,104.4910278z"/>
<path fill="#354FEB" d="M5.7752171,20.4744835l3.7832975-7.0015202c0.3812151-0.705492-0.1296625-1.5622377-0.9315624-1.5622377
	H1.0603459c-0.8019008,0-1.312778,0.8567467-0.9315616,1.5622387l3.7833092,7.0015192
	C4.3123093,21.2151375,5.3750019,21.2151375,5.7752171,20.4744835z"/>
<path fill="#354FEB" d="M524.0888672,54.8766556l3.7833252-7.0015221c0.3812256-0.7054901-0.1296997-1.5622368-0.9315796-1.5622368
	h-7.5665894c-0.8019409,0-1.3128052,0.8567467-0.9315796,1.5622406l3.7833252,7.0015182
	C522.6259766,55.6173096,523.6886597,55.6173096,524.0888672,54.8766556z"/>
<path fill="#FC5E65" d="M166.5145264,1.4743352l-10.0413666,18.5829468c-1.011795,1.872467,0.3441315,4.1463814,2.4724884,4.1463814
	h20.0827637c2.1283417,0,3.4842834-2.2739162,2.4724731-4.1463852L171.4595032,1.474332
	C170.3972778-0.4914584,167.5767517-0.4914565,166.5145264,1.4743352z"/>
<path fill="#FC5E65" d="M496.148468,208.2919464l10.0413513-18.5829468c1.0118103-1.872467-0.3441162-4.1463776-2.4724731-4.1463776
	h-20.0827637c-2.1283569,0-3.4842834,2.2739105-2.4724731,4.1463776l10.0413818,18.5829468
	C492.2657166,210.2577362,495.0862427,210.2577362,496.148468,208.2919464z"/>
<circle fill="#FDA3B6" cx="28.3721828" cy="169.3893127" r="11.5"/>
</svg>
