<?xml version="1.0" encoding="utf-8"?>
<!-- Generator: Adobe Illustrator 17.1.0, SVG Export Plug-In . SVG Version: 6.00 Build 0)  -->
<!DOCTYPE svg PUBLIC "-//W3C//DTD SVG 1.1//EN" "http://www.w3.org/Graphics/SVG/1.1/DTD/svg11.dtd">
<svg version="1.1" id="分離模式" xmlns="http://www.w3.org/2000/svg" xmlns:xlink="http://www.w3.org/1999/xlink" x="0px"
	 y="0px" viewBox="0 0 290 177.9610291" enable-background="new 0 0 290 177.9610291" xml:space="preserve">
<g>
	<g>
		<path fill="#FFFFFF" d="M72.3466187,9.2644682c13.752182,0,27.2838669,3.9299879,39.4944305,10.7875471
			c13.9661865,7.8437634,31.1786499,8.2245331,44.5356903-0.6165504
			c9.7842102-6.476326,21.6946106-10.1709967,35.0294189-10.1709967c41.4640503,0,80.9524536,35.6899757,88.2009888,79.7156601
			c7.2480469,44.0256882-20.4892883,79.7161179-61.9528961,79.7161179c-13.7526398,0-27.284317-3.9299927-39.4948883-10.7880096
			c-13.9661865-7.8437653-31.1786499-8.2245331-44.5356903,0.6170197c-9.7842102,6.4758606-21.6941452,10.17099-35.0294189,10.17099
			c-41.4635925,0-80.9520035-35.6904297-88.2005234-79.7161179C3.1456745,44.9544449,30.8830299,9.2644682,72.3466187,9.2644682z"/>
		<path d="M217.6534882,177.9610291c-14.8511963,0-30.0778656-4.1414185-44.033371-11.9741364
			c-11.2051239-6.2969513-25.0475464-6.2494507-34.8819885,0.2623596
			c-11.5760651,7.6631012-25.4569321,11.7117767-40.143013,11.7117767c-45.7342682,0-89.4012222-39.2405396-97.34478-87.4763947
			c-4.0758233-24.7693329,1.9180344-48.792263,16.4457893-65.9075546C31.1495094,8.7284145,50.5583,0,72.3465424,0
			c14.8557205,0,30.0801163,4.1391544,44.0288391,11.9718828c11.202858,6.2924204,25.0407562,6.2494459,34.8887787-0.2601109
			C162.8356934,4.0486813,176.7143097,0,191.4071808,0c45.7342529,0,89.4011993,39.2405434,97.3402557,87.4763947
			c4.0803223,24.7648163-1.9135132,48.7877502-16.4435425,65.9030304
			C258.8505249,169.2303619,239.443985,177.9610291,217.6534882,177.9610291z M155.828537,142.6945343
			c9.2644653,0,18.556076,2.4676514,26.8660583,7.1360779c11.187027,6.2811127,23.2742615,9.6014862,34.9588928,9.6014862
			c16.2580566,0,30.652359-6.4077759,40.5275116-18.0426483c10.9970398-12.9602966,15.4754639-31.514122,12.2817688-50.9025497
			c-6.5321655-39.6793442-41.9931946-71.957962-79.0555878-71.957962c-11.0422821,0-21.3878937,2.9856205-29.9150085,8.6311569
			c-15.5410614,10.2913418-37.0284729,10.6057339-54.189003,0.9680634
			c-11.184761-6.2788486-23.2720032-9.5992203-34.9566269-9.5992203c-16.2580605,0-30.6501045,6.4055119-40.5230064,18.0403805
			c-11.0015564,12.9603043-15.4822464,31.5141258-12.288538,50.9070778
			c6.5321732,39.6770782,41.9999771,71.9557037,79.0601196,71.9557037c11.0377426,0,21.3833694-2.9856262,29.9150009-8.6334229
			C136.5215302,145.4969482,145.9669495,142.6945343,155.828537,142.6945343z"/>
	</g>
	<path d="M62.6636314,100.0770721c-3.3429909,0-6.4846764-1.3028183-8.8460312-3.6664352l-8.7012711-8.7012711
		c-2.7141991-2.711937-2.7141991-7.1134644,0-9.8254013c2.7141991-2.7142029,7.1112061-2.7142029,9.8254051,0l7.719635,7.719635
		l12.3541336-12.3518677c2.7142029-2.7142029,7.1112061-2.7142029,9.8254013,0c2.7142029,2.711937,2.7142029,7.1134644,0,9.8254013
		L71.5051346,96.4129028C69.1460419,98.7742538,66.0043564,100.0770721,62.6636314,100.0770721z"/>
	<g>
		<circle cx="77.3573227" cy="55.4761047" r="9.3492384"/>
		<circle cx="47.8682747" cy="55.4761047" r="9.3494701"/>
	</g>
</g>
</svg>
